<svg xmlns="http://www.w3.org/2000/svg" xmlns:xlink="http://www.w3.org/1999/xlink" version="1.1" x="0px" y="0px" width="500px" height="374px" viewBox="56 209 500 374" enable-background="new 56 209 500 374" xml:space="preserve"><g><g><g><g><path fill="#8F816C" d="M364.311 225.217l-30.214 30.205l16.159 16.175l-72.093 72.094l-16.158-16.166l72.09-72.103 l-15.702-15.704c-28.726 11.638-57.453 25.364-86.179 26.048l-46.626 46.624c0 21.11 0 42.2 0 63.3 c5.822 4.43 11.65 7.97 17.46 10.783l22.897-22.893l16.158 16.161l-14.522 14.52 c66.553 10.98 133.103-52.524 199.653-1.838c0-52.039 0-104.082 0-156.138c-20.969-13.067-41.943-14.774-62.924-11.072H364.311 z M185.592 253.017c0 5.77 0 11.52 0 17.271l11.3-11.298c-3.767-1.648-7.523-3.638-11.304-5.974H185.592z"/></g></g><polyline fill="#5C7298" points="249.74,243.04 102.76,390.01 118.91,406.18 265.88,259.2"/><polygon fill="#5C7298" points="282.26,275.17 318,239.43 301.84,223.26 266.1,259"/><polygon fill="#5C7298" points="185.48,404.25 226.25,363.5 210.09,347.34 169.32,388.09"/><polyline fill="#5C7298" points="217.46,210.65 233.62,226.83 161.52,298.94 145.35,282.75"/></g><g><g><path fill="#8F816C" d="M73.268 465.53c1.922-1.245 4.836-2.558 8.744-3.912c3.908-1.363 8.405-2.034 13.501-2.034 c6.337 0 11.97 1.12 16.9 3.389c4.921 2.27 9.07 5.45 12.49 9.513c3.397 4.08 5.96 8.94 7.74 14.61 c1.75 5.66 2.64 11.88 2.64 18.68c0 7.136-1.042 13.56-3.138 19.273c-2.098 5.719-5.071 10.556-8.922 14.52 c-3.847 3.967-8.489 7.022-13.921 9.171c-5.436 2.148-11.549 3.229-18.344 3.229c-7.362 0-13.87-0.511-19.529-1.527 c-5.664-1.018-10.304-2.039-13.925-3.056V420.862l15.795-2.723v47.391H73.268z M73.268 536.17 c1.583 0.45 3.82 0.89 6.7 1.274c2.885 0.41 6.48 0.6 10.78 0.604c8.493 0 15.29-2.807 20.384-8.411 c5.094-5.613 7.641-13.564 7.641-23.857c0-4.533-0.454-8.778-1.359-12.741c-0.905-3.967-2.376-7.386-4.415-10.276 c-2.036-2.892-4.669-5.149-7.898-6.791c-3.227-1.642-7.103-2.469-11.629-2.469c-4.3 0-8.268 0.747-11.891 2.21 c-3.619 1.473-6.394 3-8.318 4.587v55.869H73.268z"/><path fill="#8F816C" d="M174.252 549.929h-15.792v-88.307h15.792V549.929z"/><path fill="#8F816C" d="M220.416 461.622h33.457v13.243h-33.457v40.756c0 4.41 0.35 8.06 1.02 10.96 c0.673 2.87 1.68 5.14 3.04 6.791c1.359 1.64 3.05 2.79 5.1 3.485c2.038 0.67 4.41 1.01 7.13 1.01 c4.759 0 8.576-0.54 11.46-1.611c2.885-1.081 4.902-1.841 6.033-2.292l3.058 13.079c-1.591 0.789-4.362 1.776-8.32 2.96 c-3.965 1.19-8.494 1.781-13.592 1.781c-6.001 0-10.952-0.764-14.86-2.296c-3.906-1.527-7.046-3.815-9.426-6.879 c-2.374-3.056-4.051-6.82-5.007-11.289c-0.962-4.474-1.443-9.648-1.443-15.544v-78.789l15.792-2.723v27.356H220.416z"/></g><path fill="#5C7298" d="M357.756 505.269c0 6.909-0.848 13.188-2.549 18.844c-1.69 5.673-4.189 10.53-7.471 14.61 c-3.283 4.068-7.361 7.242-12.229 9.509c-4.861 2.262-10.475 3.397-16.813 3.397c-3.505 0-6.788-0.338-9.839-1.021 c-3.069-0.684-6.008-1.65-8.838-2.891v33.627h-25.305V463.647c2.264-0.684 4.868-1.329 7.816-1.954 c2.941-0.62 6.027-1.156 9.255-1.611c3.227-0.452 6.505-0.823 9.848-1.106c3.34-0.282 6.542-0.422 9.593-0.422 c7.362 0 13.94 1.1 19.71 3.313c5.775 2.2 10.65 5.31 14.61 9.335c3.956 4.02 6.98 8.93 9.07 14.7 c2.094 5.78 3.15 12.24 3.15 19.371H357.756z M331.945 505.944c0-7.808-1.758-14.071-5.265-18.764 c-3.503-4.702-8.717-7.053-15.619-7.053c-2.273 0-4.357 0.089-6.289 0.254c-1.924 0.173-3.511 0.371-4.752 0.599v45.686 c1.581 1.02 3.65 1.86 6.2 2.545c2.556 0.67 5.12 1.02 7.74 1.013c11.982 0 17.982-8.073 17.982-24.279H331.945z"/><path fill="#5C7298" d="M410.626 458.221c7.472 0 13.7 0.86 18.67 2.549c4.984 1.71 8.97 4.13 11.97 7.3 c3 3.18 5.12 7.02 6.38 11.543c1.24 4.54 1.86 9.57 1.86 15.113v52.652c-3.632 0.794-8.658 1.735-15.109 2.81 c-6.455 1.071-14.267 1.604-23.443 1.604c-5.77 0-11.01-0.498-15.709-1.528c-4.69-1.017-8.742-2.688-12.139-5.014 c-3.396-2.312-5.998-5.334-7.814-9.086c-1.812-3.735-2.712-8.318-2.712-13.754c0-5.208 1.042-9.618 3.14-13.235 c2.094-3.625 4.898-6.512 8.398-8.664c3.512-2.148 7.533-3.714 12.07-4.672c4.516-0.958 9.222-1.439 14.092-1.439 c3.285 0 6.2 0.15 8.75 0.422c2.54 0.28 4.6 0.65 6.2 1.102v-2.372c0-4.3-1.305-7.761-3.902-10.364 c-2.609-2.604-7.139-3.904-13.594-3.904c-4.298 0-8.543 0.312-12.734 0.937c-4.189 0.612-7.812 1.494-10.871 2.63l-3.225-20.38 c1.473-0.452 3.314-0.938 5.52-1.452c2.203-0.498 4.617-0.958 7.217-1.351c2.602-0.4 5.354-0.738 8.242-1.021 c2.887-0.287 5.797-0.413 8.736-0.426H410.626z M412.664 532.274c2.478 0 4.864-0.063 7.135-0.177 c2.267-0.11 4.074-0.278 5.43-0.507v-19.194c-1.016-0.219-2.547-0.451-4.59-0.675c-2.029-0.232-3.899-0.342-5.596-0.342 c-2.379 0-4.619 0.14-6.711 0.418c-2.096 0.287-3.934 0.831-5.52 1.616c-1.588 0.793-2.83 1.869-3.735 3.24 c-0.907 1.363-1.358 3.047-1.358 5.098c0 3.96 1.32 6.7 4 8.234c2.654 1.52 6.31 2.3 10.95 2.287H412.664z"/><path fill="#5C7298" d="M554.506 460.605c-5.09 17.206-10.42 33.34-15.966 48.398c-5.546 15.062-11.606 29.66-18.167 43.82 c-2.384 5.086-4.762 9.42-7.134 12.982c-2.38 3.57-4.981 6.512-7.815 8.833c-2.832 2.325-6.027 4.021-9.592 5.1 c-3.568 1.076-7.731 1.617-12.483 1.617c-3.965 0-7.618-0.363-10.96-1.115c-3.336-0.734-4.52-1.549-6.672-2.456l2.853-20.211 c2.602 0.91 4.93 1.53 6.96 1.865c2.032 0.35 4.19 0.52 6.46 0.511c4.527 0 8.01-1.215 10.449-3.654 c2.426-2.427 4.494-5.799 6.193-10.104c-5.771-11.315-11.549-24.019-17.324-38.123c-5.771-14.091-9.646-29.918-14.746-47.461 h25.277c1.127 4.41 2.46 9.2 4 14.345c1.533 5.14 3.13 10.35 4.84 15.623c1.696 5.27 3.41 10.39 5.19 15.36 c1.753 4.99 3.41 9.51 5.01 13.581c1.467-4.068 3.004-8.597 4.588-13.581c1.576-4.984 3.139-10.104 4.66-15.366 c1.539-5.271 2.998-10.475 4.424-15.624c1.414-5.145 2.685-9.935 3.824-14.345h26.137V460.605z"/></g></g></svg>